<svg xmlns="http://www.w3.org/2000/svg" version="1.1" xmlns:xlink="http://www.w3.org/1999/xlink" width="1024" height="1024"><svg viewBox="0 0 1024 1024" version="1.1" id="SvgjsSvg1037" sodipodi:docname="honeycomb1.svg" inkscape:version="1.3.2 (091e20e, 2023-11-25)" xmlns:inkscape="http://www.inkscape.org/namespaces/inkscape" xmlns:sodipodi="http://sodipodi.sourceforge.net/DTD/sodipodi-0.dtd" xmlns="http://www.w3.org/2000/svg" xmlns:svg="http://www.w3.org/2000/svg">
  <defs id="SvgjsDefs1036"></defs>
  <sodipodi:namedview id="SvgjsSodipodi:namedview1035" pagecolor="#ffffff" bordercolor="#000000" borderopacity="0.25" inkscape:showpageshadow="2" inkscape:pageopacity="0.0" inkscape:pagecheckerboard="0" inkscape:deskcolor="#d1d1d1" inkscape:zoom="0.84472656" inkscape:cx="533.30867" inkscape:cy="507.26474" inkscape:window-width="1392" inkscape:window-height="1212" inkscape:window-x="0" inkscape:window-y="25" inkscape:window-maximized="0" inkscape:current-layer="svg1"></sodipodi:namedview>
  <path d="m328.392 576.677-70.078-120.277 70.08-120.275h140.156l70.078 120.275-70.08 120.277zm225.18-122.183-70.077-120.276 70.08-120.276h140.155l70.08 120.276-70.08 120.276zm-455.3-6.74-70.082-120.274 70.08-120.277h140.16l70.077 120.276-70.08 120.275h-140.157zm226.82-130.823-70.078-120.275 70.08-120.276h140.156l70.078 120.275-70.08 120.276zm226.81 650.58-70.077-120.275 70.08-120.276h140.155l70.08 120.275-70.08 120.276zm221.07-130.35-70.077-120.275 70.08-120.276h140.155l70.08 120.275-70.08 120.276zm-444.58-3.29-70.078-120.276 70.08-120.276h140.156l70.078 120.276-70.08 120.276zm223.51-125.287-70.077-120.276 70.08-120.276h140.155l70.08 120.277-70.08 120.276h-140.158zm-446.95-.31-70.078-120.279 70.078-120.276h140.156l70.078 120.276-70.08 120.276h-140.154zm673.032-384.134-70.078-120.277 70.08-120.276h140.156l70.078 120.276-70.08 120.276h-140.156z" id="SvgjsPath1034"></path>
  <path style="fill:#ffc100;stroke-width:1.18382;fill-opacity:1" d="M 97.978224,445.4104 C 97.340095,444.59653 81.560873,417.73468 62.913287,385.71741 l -33.904702,-58.21322 34.73302,-59.57637 34.733019,-59.57637 69.736106,-0.30038 69.73609,-0.30037 34.26337,58.85204 c 18.84486,32.36862 34.29364,59.69622 34.33064,60.72801 0.037,1.03178 -15.35672,28.35475 -34.20825,60.7177 l -34.27551,58.84172 h -69.45931 c -54.15944,0 -69.714867,-0.32595 -70.619536,-1.47977 z" id="SvgjsPath1033"></path>
  <path style="fill:#ffc100;fill-opacity:1;stroke-width:1.18382" d="m 290.77766,256.75486 c -30.38814,-52.30333 -34.6122,-60.17108 -33.50804,-62.41231 0.69488,-1.41049 16.34771,-28.40128 34.78406,-59.97954 l 33.52063,-57.415033 69.39119,-0.305357 69.39119,-0.305356 34.64239,59.496106 c 19.05333,32.72286 34.818,59.81909 35.03263,60.21384 0.21461,0.39476 -15.24705,27.56331 -34.35928,60.37457 l -34.7495,59.65683 -69.68689,0.26203 -69.68691,0.26202 z" id="SvgjsPath1032"></path>
  <path style="fill:#ffc100;fill-opacity:1;stroke-width:1.18382" d="m 519.19532,394.07701 c -27.31046,-46.97531 -34.57918,-60.32863 -33.66785,-61.85103 0.63923,-1.06787 16.29075,-27.91153 34.78113,-59.65257 l 33.61889,-57.71098 69.89406,0.0433 69.89406,0.0432 34.62804,59.64286 34.62806,59.64285 -34.73704,59.58326 -34.73704,59.58327 -69.7361,0.29265 -69.7361,0.29265 z" id="SvgjsPath1031"></path>
  <path style="fill:#ffc100;fill-opacity:1;stroke-width:1.18382" d="m 743.97032,264.32247 c -19.0673,-32.69801 -34.64518,-59.99975 -34.61751,-60.67052 0.0277,-0.67078 15.46672,-27.58906 34.309,-59.81842 L 777.9205,85.234682 h 70.1844 70.18441 l 34.1985,58.598848 c 18.80917,32.22936 34.07061,59.42392 33.91431,60.43236 -0.15631,1.00843 -15.71909,28.31016 -34.58394,60.67052 l -34.29974,58.837 h -69.44016 -69.44015 z" id="SvgjsPath1030"></path>
  <path style="fill:#ffc100;fill-opacity:1;stroke-width:1.18382" d="m 738.39326,776.56347 -34.63796,-59.70279 34.67833,-59.51705 34.67834,-59.51704 69.80471,-0.28616 69.80471,-0.28616 34.2595,58.80178 c 18.84271,32.34098 34.2915,59.6383 34.33063,60.66073 0.0391,1.02241 -15.3731,28.3616 -34.24939,60.75374 l -34.32052,58.8948 -69.8552,-0.0495 -69.8552,-0.0495 z" id="SvgjsPath1029"></path>
  <path style="fill:#ffc100;fill-opacity:1;stroke-width:1.18382" d="M 544.85186,953.85896 C 512.49133,898.87962 483.0547,847.57898 483.33988,846.65905 c 0.18884,-0.60917 15.81323,-27.67943 34.72087,-60.15615 l 34.37753,-59.04856 h 69.55219 69.55219 l 34.23329,58.76404 c 18.82831,32.32022 34.40485,59.48519 34.61452,60.3666 0.20968,0.88142 -15.14751,28.24199 -34.1271,60.80128 l -34.50831,59.19871 h -69.70637 -69.70637 z" id="SvgjsPath1028"></path>
  <path style="fill:#ffc100;fill-opacity:1;stroke-width:1.18382" d="m 517.86593,648.63925 c -19.17817,-32.93073 -34.77351,-60.25376 -34.65632,-60.71784 0.11719,-0.46409 15.77735,-27.59152 34.80034,-60.28318 l 34.58727,-59.43939 h 69.38606 69.38605 l 34.61195,59.48671 c 19.03657,32.71769 34.61088,60.01942 34.60957,60.67052 -0.001,0.6511 -15.5815,27.94752 -34.62263,60.65871 l -34.62024,59.4749 -69.30632,0.0118 -69.30633,0.0118 z" id="SvgjsPath1027"></path>
  <path style="fill:#ffc100;fill-opacity:1;stroke-width:1.18382" d="M 324.64178,826.0163 C 284.2325,757.00547 259.75051,714.1228 260.05681,712.88921 c 0.21037,-0.84727 15.80453,-28.01522 34.65368,-60.37323 l 34.27118,-58.83274 h 69.46871 69.46872 l 34.63692,59.4867 c 19.05031,32.71769 34.7605,59.75307 34.91156,60.07861 0.15105,0.32555 -15.26961,27.22775 -34.26813,59.78266 l -34.54279,59.19076 -70.0118,0.30531 -70.0118,0.30532 z" id="SvgjsPath1026"></path>
  <path style="fill:#ffc100;fill-opacity:1;stroke-width:1.18382" d="M 70.959065,648.54917 C 52.115625,616.22 36.514736,589.29993 36.290422,588.72679 36.066108,588.15366 51.514895,560.81036 70.621059,527.9639 l 34.738481,-59.72082 69.78488,0.27383 69.78487,0.27384 34.69921,59.60542 34.69921,59.60542 -34.639,59.62867 -34.639,59.62866 -69.91492,0.0353 -69.91493,0.0353 z" id="SvgjsPath1025"></path>
  <path style="fill:#ffc100;fill-opacity:1;stroke-width:1.18382;stroke:#ffc200;stroke-opacity:1" d="m 294.3111,516.74125 c -18.95504,-32.56189 -34.4637,-59.72961 -34.4637,-60.37272 0,-0.64311 15.52784,-27.81435 34.50631,-60.38054 l 34.50632,-59.21125 69.81018,0.30527 69.81019,0.30527 34.66091,59.53512 34.66091,59.53511 -34.68244,59.4383 -34.68244,59.43829 -69.83128,0.30529 -69.83127,0.30529 z" id="SvgjsPath1024"></path>
  <path style="fill:#ffc100;fill-opacity:1;stroke:#ffc200;stroke-width:1.18382;stroke-opacity:1" d="M 124.99094,445.74774 98.453553,445.11445 64.249661,386.54981 C 35.893473,337.99773 30.235662,327.57453 31.156474,325.58333 c 1.51077,-3.26694 66.503843,-114.65568 67.495146,-115.67692 0.433864,-0.44697 31.87576,-0.92661 69.87089,-1.06587 l 69.08205,-0.25319 10.67452,18.23118 c 14.01011,23.92809 43.83527,75.67367 51.68767,89.67628 l 6.20815,11.07054 -20.09982,35.09824 c -11.05491,19.30405 -26.48861,46.01895 -34.29711,59.36647 l -14.19727,24.26821 -43.02618,0.0414 c -23.66442,0.0228 -54.96802,-0.24359 -69.56358,-0.59191 z" id="SvgjsPath1023"></path>
  <path style="fill:#ffc100;fill-opacity:1;stroke:#ffc200;stroke-width:1.18382;stroke-opacity:1" d="m 309.61579,287.94146 c -32.44963,-56.01051 -49.60367,-86.29289 -50.75793,-89.60399 -1.10241,-3.16238 1.18216,-7.47188 32.37583,-61.07218 18.45907,-31.71834 33.99783,-58.096107 34.5306,-58.617267 0.53276,-0.521159 31.86505,-1.072238 69.62731,-1.22462 l 68.65865,-0.277057 34.67337,59.560774 34.67337,59.56077 -8.4758,14.92039 c -4.6617,8.20622 -20.16897,35.03045 -34.4606,59.60941 l -25.98479,44.68902 -69.46334,-0.0215 -69.46333,-0.0215 z" id="SvgjsPath1022"></path>
  <path style="fill:#ffc100;fill-opacity:1;stroke:#ffc200;stroke-width:1.18382;stroke-opacity:1" d="m 554.04893,452.80925 c -0.18758,-0.32555 -12.83365,-22.16694 -28.10238,-48.53642 -15.26873,-26.36948 -30.55575,-53.13272 -33.97116,-59.47387 l -6.20983,-11.52936 33.92721,-58.31573 c 18.65996,-32.07365 34.36563,-58.76946 34.90149,-59.32404 0.53586,-0.55458 32.07052,-0.61533 70.07702,-0.135 l 69.10272,0.87332 33.70953,58.12307 c 18.54025,31.96769 33.67946,58.93064 33.64273,59.91766 -0.0578,1.55371 -65.68407,115.23025 -67.80522,117.45094 -0.88942,0.93116 -138.74117,1.87091 -139.27211,0.94943 z" id="SvgjsPath1021"></path>
  <path style="fill:#ffc100;fill-opacity:1;stroke:#ffc200;stroke-width:1.18382;stroke-opacity:1" d="M 777.90762,321.10983 C 775.96374,318.04459 729.23474,237.5425 717.6404,217.28487 l -7.76045,-13.55908 2.74781,-4.79006 c 8.5991,-14.9902 39.0212,-67.40331 51.22231,-88.24902 l 14.20432,-24.268213 69.9006,-0.305302 69.90059,-0.305303 26.03612,44.698368 c 14.31986,24.5841 29.60073,51.20776 33.95746,59.16369 l 7.92134,14.46533 -4.45621,8.02716 c -4.08706,7.36217 -50.08116,86.96117 -60.21613,104.21213 l -4.34684,7.39884 h -68.57727 -68.57727 z" id="SvgjsPath1020"></path>
  <path style="fill:#ffc100;fill-opacity:1;stroke:#ffc200;stroke-width:1.18382;stroke-opacity:1" d="m 816.24046,835.45872 -43.20925,-0.34478 -33.73872,-58.2691 c -18.55631,-32.04802 -33.70789,-59.09475 -33.67019,-60.10385 0.0657,-1.75841 64.65285,-113.84045 67.30529,-116.79897 0.97847,-1.09138 17.87879,-1.46854 70.42155,-1.57157 l 69.13412,-0.13557 16.13971,27.61551 c 8.87684,15.18853 24.27509,41.81205 34.21834,59.16339 l 18.07865,31.54789 -6.13299,11.06946 c -3.37313,6.08819 -8.91706,15.8639 -12.31984,21.72378 -3.40277,5.85989 -16.16135,27.83445 -28.35241,48.83237 l -22.16555,38.17804 -26.24973,-0.28091 c -14.43735,-0.15451 -45.69389,-0.43607 -69.45898,-0.62569 z" id="SvgjsPath1019"></path>
</svg><style>@media (prefers-color-scheme: light) { :root { filter: none; } }
@media (prefers-color-scheme: dark) { :root { filter: none; } }
</style></svg>